<?xml version="1.0" encoding="UTF-8"?>
<svg width="30px" height="20px" viewBox="0 0 30 20" version="1.1" xmlns="http://www.w3.org/2000/svg" xmlns:xlink="http://www.w3.org/1999/xlink">
    <!-- Generator: Sketch 44 (41411) - http://www.bohemiancoding.com/sketch -->
    <title>Icon - mPulse Mobile</title>
    <desc>Created with Sketch.</desc>
    <defs></defs>
    <g id="Page-1" stroke="none" stroke-width="1" fill="none" fill-rule="evenodd" opacity="1">
        <path d="M23.2967702,16.6423977 C23.2967702,15.7931369 23.5381097,14.9875141 23.7591497,14.1807723 C23.8256872,13.9368476 23.9689121,13.6414525 23.7038897,13.4557117 C23.4388673,13.2699709 23.1918889,13.4915172 22.9900208,13.6358579 C21.1314806,14.9640167 19.3124118,16.3447648 17.6895723,17.9548916 C17.335299,18.3148119 16.9541641,18.647703 16.549412,18.9507309 C16.2618345,19.161088 15.9291468,19.3457099 15.5569876,19.1588502 C15.2040003,18.9809418 15.1938505,18.6318386 15.1667844,18.2883299 C15.0844583,17.2410202 15.5344325,16.3313377 15.8896753,15.3914444 C16.7309806,13.1681491 17.8350527,11.0712918 18.9639355,8.98562377 C19.23736,8.45312871 19.4010664,7.87190206 19.4454868,7.27591304 C19.4838305,6.89883679 19.4612754,6.4926686 19.0924995,6.27671692 C18.7237236,6.06076524 18.3820139,6.26776555 18.063987,6.50050105 C17.0399854,7.24122651 16.3813765,8.2986065 15.638186,9.27542422 C14.1337608,11.2536759 12.8187985,13.367317 11.2681354,15.3175956 C9.91482937,17.0172361 8.36078298,18.4751897 6.35676235,19.4128452 C4.3933409,20.318052 2.54607822,19.8760783 1.27171507,18.1518216 C0.719115126,17.4066205 0.369511077,16.5640732 0.0559951883,15.7036233 C0.0187792734,15.6006826 -0.0376084764,15.4798391 0.0356955984,15.383612 C0.123660488,15.2638874 0.240947008,15.3343794 0.340189447,15.383612 C2.4614966,16.3660243 4.20387806,15.5559257 5.72183629,14.1404911 C8.51415766,11.5367628 11.0504786,8.68463412 13.6443151,5.88845146 C15.4757893,3.91243762 17.4144001,2.03936448 19.7770468,0.663092099 C20.687761,0.12519367 21.7536598,-0.0949813325 22.805069,0.0376154644 C23.4032515,0.0894212805 23.9509417,0.391369349 24.3112159,0.86797201 C24.6714901,1.34457467 24.8102957,1.95078398 24.6929308,2.53504632 C24.3399435,4.42266543 23.3576689,6.04174359 22.404716,7.66753527 C21.4416132,9.31122968 20.3555851,10.8788375 19.2966232,12.4621102 C18.9545226,12.9538148 18.6947954,13.4971608 18.5274943,14.0711181 C18.4812563,14.241194 18.3019433,14.4549078 18.4823841,14.5869405 C18.6628249,14.7189731 18.8782261,14.5388269 19.0361118,14.4258159 C19.843391,13.8482845 20.6122399,13.219635 21.3378597,12.5437914 C22.4847866,11.4707465 23.6069028,10.3697286 24.848561,9.40186225 C25.4395046,8.94198587 26.0575144,8.50672574 26.8176213,8.35567146 C28.1280726,8.08601158 29.3392814,9.21276466 29.1035806,10.5174261 C28.8385582,11.9832122 28.3795619,13.4109549 28.2013766,14.8957626 C28.1299135,15.4151629 28.1238523,15.9413664 28.1833326,16.4622514 C28.282575,17.2130472 28.5645137,17.4178097 29.3201096,17.3652204 C29.529872,17.3506744 29.7847446,17.1895499 29.9426303,17.4424259 C30.100516,17.695302 29.8963924,17.9011834 29.7644451,18.0981134 C28.7077386,19.6646023 27.0973045,20.3270033 25.5060422,19.8458674 C24.0760489,19.4072506 23.2967702,18.2782596 23.2967702,16.6423977 Z" id="Icon---mPulse-Mobile" fill="#FFFFFF" fill-rule="nonzero"></path>
    </g>
</svg>